<svg xmlns="http://www.w3.org/2000/svg" version="1.1" xmlns:xlink="http://www.w3.org/1999/xlink" xmlns:svgjs="http://svgjs.dev/svgjs" width="128" height="128" viewBox="0 0 128 128"><g transform="matrix(0.8046875,0,0,0.8046875,12.760752631578946,24.21107680805131)"><svg viewBox="0 0 95 74" data-background-color="#ffffff" preserveAspectRatio="xMidYMid meet" height="99" width="128" xmlns="http://www.w3.org/2000/svg" xmlns:xlink="http://www.w3.org/1999/xlink"><g id="tight-bounds" transform="matrix(1,0,0,1,-0.24049999999999727,-0.040043103448269335)"><svg viewBox="0 0 95.481 74.08008620689654" height="74.08008620689654" width="95.481"><g><svg viewBox="0 0 95.481 74.08008620689654" height="74.08008620689654" width="95.481"><g><svg viewBox="0 0 95.481 74.08008620689654" height="74.08008620689654" width="95.481"><g id="textblocktransform"><svg viewBox="0 0 95.481 74.08008620689654" height="74.08008620689654" width="95.481" id="textblock"><g><svg viewBox="0 0 95.481 74.08008620689654" height="74.08008620689654" width="95.481"><g><svg viewBox="0 0 95.481 74.08008620689654" height="74.08008620689654" width="95.481"><g><svg xmlns="http://www.w3.org/2000/svg" xmlns:xlink="http://www.w3.org/1999/xlink" version="1.1" x="0" y="0" viewBox="23 27.999999999999996 58 45" enable-background="new 0 0 100 100" xml:space="preserve" height="74.08008620689654" width="95.481" class="icon-icon-0" data-fill-palette-color="accent" id="icon-0"><path d="M77 37H65v-4.7c0-3-1.5-4.3-4.6-4.3H43.8c-3 0-4.8 1.4-4.8 4.3V37H26.7c-2.6 0-3.7 1.2-3.7 3.7V69c0 2.5 1.4 4 4 4h50c2.6 0 4-0.8 4-3.3v-29C81 38.2 79.6 37 77 37zM42 32.3c0-1.3 0.5-1.3 1.8-1.3h16.6c1.3 0 1.6 0.1 1.6 1.3V37H42V32.3zM78 67.9c0 1.1 0.1 2.1-1 2.1H27.8c-1.1 0-1.8-1-1.8-2.1V41.7c0-1.1 0.5-1.7 1.7-1.7H77c1.1 0 1 0.6 1 1.7V67.9z" fill="#096a2e" data-fill-palette-color="accent"></path></svg></g></svg></g></svg></g></svg></g></svg></g><g></g></svg></g><defs></defs></svg><rect width="95.481" height="74.08008620689654" fill="none" stroke="none" visibility="hidden"></rect></g></svg></g></svg>